<svg width="16" height="24" viewBox="0 0 16 24" fill="none" xmlns="http://www.w3.org/2000/svg">
    <path fill-rule="evenodd" clip-rule="evenodd" d="M3.37905 1.35202L9.06857 0.45795C12.2892 -0.0481423 13.8995 -0.301188 14.9497 0.596932C16 1.49505 16 3.12511 16 6.38521V10.9402H8.93777L12.2094 6.85056L10.6477 5.60117L6.07627 11.3155L5.57652 11.9402L6.07627 12.5648L10.6477 18.2791L12.2094 17.0297L8.93777 12.9402H16V17.4951C16 20.7552 16 22.3853 14.9497 23.2834C13.8995 24.1815 12.2892 23.9284 9.06857 23.4224L3.37905 22.5283C1.76632 22.2749 0.95995 22.1481 0.479975 21.5869C0 21.0256 0 20.2093 0 18.5768V5.30353C0 3.671 0 2.85474 0.479975 2.29345C0.95995 1.73216 1.76632 1.60545 3.37905 1.35202L3.37905 1.35202Z" fill="#2A2A2A"/>
</svg>
