<svg width="23" height="23" viewBox="0 0 23 23" fill="none" xmlns="http://www.w3.org/2000/svg">
    <g clip-path="url(#clip0_484_110)">
        <path d="M14.4779 4.81081C14.4125 4.79338 14.3951 4.78466 14.3733 4.78466C13.5847 4.79774 13.7633 4.6365 13.6806 5.38167C13.5194 6.80228 13.3538 8.2229 13.2318 9.64787C13.149 10.624 13.1185 11.6045 13.088 12.585C13.0793 12.9249 13.1229 13.2648 13.1664 13.6047C13.2187 14.023 13.5194 14.2932 13.7938 14.5677C14.2295 14.9991 14.748 15.2955 15.3405 15.4654C15.3972 15.4828 15.4495 15.5046 15.5148 15.5308C15.48 16.1932 15.4451 16.8512 15.4102 17.5092C15.3536 18.5768 15.3013 19.6401 15.249 20.7077C15.2229 21.2089 15.1837 21.7057 15.1706 22.2068C15.1663 22.3637 15.1009 22.4203 14.9658 22.4639C13.2667 22.9781 11.5413 23.1568 9.78115 22.8605C9.49359 22.8125 9.21039 22.7515 8.9272 22.7036C8.80956 22.6818 8.76163 22.6251 8.75292 22.4988C8.68757 21.1261 8.6135 19.7578 8.53943 18.3894C8.48279 17.2957 8.42615 16.2019 8.3608 15.1037C8.35209 14.9643 8.3913 14.8989 8.53072 14.8597C10.0164 14.4544 10.8224 13.3955 11.293 12.0098C11.5849 11.1469 11.72 10.2536 11.6372 9.35155C11.476 7.55181 10.6612 6.11377 9.07969 5.18993C8.09939 4.61471 7.06681 4.63214 6.09958 5.23351C4.45703 6.25757 3.65537 7.78277 3.60744 9.70016C3.5813 10.7591 3.79043 11.7788 4.25662 12.7375C4.77073 13.7833 5.53754 14.5416 6.68776 14.8466C6.87075 14.8946 6.9056 14.9774 6.89253 15.1517C6.79232 16.9558 6.70083 18.7642 6.60498 20.5683C6.58319 20.9866 6.55705 21.405 6.53091 21.832C3.08461 20.3199 -0.287616 16.1714 0.0217231 10.8462C0.365917 4.87618 5.18027 0.287506 10.9357 0.0129703C16.6999 -0.261566 21.5709 3.69524 22.7254 9.02036C23.9977 14.8858 20.6472 19.5835 17.2663 21.4006C17.2488 21.0956 17.2314 20.8036 17.2183 20.5116C17.1356 18.9254 17.0571 17.3349 16.97 15.7487C16.9613 15.5744 17.0005 15.5003 17.1791 15.448C17.9329 15.2257 18.5428 14.7856 19.0395 14.1842C19.2966 13.8705 19.3619 13.5088 19.375 13.1253C19.4229 11.7526 19.3358 10.38 19.1964 9.016C19.0657 7.70869 18.9132 6.40573 18.7694 5.09842C18.7607 4.99819 18.7389 4.90232 18.7215 4.79338C18.5428 4.79338 18.3773 4.79338 18.1856 4.79338C18.1856 7.35571 18.1856 9.91369 18.1856 12.4891C17.9372 12.4891 17.715 12.4891 17.471 12.4891C17.471 9.93112 17.471 7.36879 17.471 4.79774C17.1922 4.79774 16.9352 4.79774 16.652 4.79774C16.652 7.36007 16.652 9.92241 16.652 12.4935C16.4123 12.4935 16.1988 12.4935 15.9549 12.4935C15.9549 9.93112 15.9549 7.36879 15.9549 4.79774C15.6847 4.79774 15.4407 4.79774 15.1706 4.79774C15.1706 7.36443 15.1706 9.92241 15.1706 12.4935C14.931 12.4935 14.7131 12.4935 14.4692 12.4935C14.4779 9.93548 14.4779 7.3775 14.4779 4.81081Z" fill="#BCBCBC"/>
        <path d="M4.37884 10.5196C4.42677 9.70908 4.57926 8.92469 5.02802 8.22746C5.04544 8.19695 5.05851 8.15338 5.08901 8.13595C5.15001 8.09673 5.21972 8.07494 5.28943 8.04443C5.31557 8.11851 5.36785 8.19695 5.35478 8.26668C5.28943 8.68066 5.19358 9.09028 5.13694 9.50427C5.00187 10.5153 5.27636 11.4565 5.66412 12.376C5.86454 12.8553 6.14338 13.2824 6.47886 13.679C6.52679 13.7356 6.52243 13.8271 6.54421 13.9056C6.47015 13.9056 6.38737 13.9317 6.32201 13.9056C5.90811 13.7269 5.57263 13.4306 5.29379 13.0863C4.77967 12.4457 4.50083 11.6962 4.37884 10.8857C4.36141 10.768 4.37884 10.646 4.37884 10.5196Z" fill="#BCBCBC"/>
    </g>
    <defs>
        <clipPath id="clip0_484_110">
            <rect width="23" height="23" fill="white"/>
        </clipPath>
    </defs>
</svg>
