<svg width="31" height="31" viewBox="0 0 31 31" fill="none" xmlns="http://www.w3.org/2000/svg">
    <path fill-rule="evenodd" clip-rule="evenodd" d="M2.5835 15.4999C2.5835 8.36624 8.36649 2.58325 15.5002 2.58325C22.6338 2.58325 28.4168 8.36624 28.4168 15.4999C28.4168 19.5048 26.5942 23.084 23.7331 25.4532C23.1672 23.8809 22.1607 22.4982 20.8268 21.4747C19.2987 20.3022 17.4263 19.6666 15.5002 19.6666C13.574 19.6666 11.7016 20.3022 10.1735 21.4747C8.83967 22.4982 7.83315 23.8809 7.26723 25.4532C4.40616 23.084 2.5835 19.5048 2.5835 15.4999ZM19.6093 23.0615C20.7842 23.9629 21.6298 25.2257 22.0162 26.655C20.1034 27.7748 17.8767 28.4166 15.5002 28.4166C13.1236 28.4166 10.897 27.7747 8.98409 26.655C9.37049 25.2257 10.2162 23.9629 11.391 23.0614C12.5699 22.1569 14.0143 21.6666 15.5002 21.6666C16.9861 21.6666 18.4305 22.1569 19.6093 23.0615ZM12.6252 11.6249C12.6252 10.0371 13.9123 8.74992 15.5002 8.74992C17.088 8.74992 18.3752 10.0371 18.3752 11.6249C18.3752 13.2127 17.088 14.4999 15.5002 14.4999C13.9123 14.4999 12.6252 13.2127 12.6252 11.6249ZM15.5002 6.74992C12.8078 6.74992 10.6252 8.93253 10.6252 11.6249C10.6252 14.3173 12.8078 16.4999 15.5002 16.4999C18.1926 16.4999 20.3752 14.3173 20.3752 11.6249C20.3752 8.93253 18.1926 6.74992 15.5002 6.74992Z" fill="#2A2A2A"/>
    <rect x="3.0835" y="3.08325" width="24.8333" height="24.8333" rx="12.4167" stroke="#2A2A2A"/>
</svg>
