<svg width="31" height="16" viewBox="0 0 31 16" fill="none" xmlns="http://www.w3.org/2000/svg">
    <path d="M10.0687 8.04226C10.0687 10.3041 10.0687 12.5659 10.0687 14.8278C10.0687 15.602 9.69048 15.9848 8.94255 15.9935C8.38375 16.0022 7.82495 16.0022 7.26614 15.9935C6.50961 15.9848 6.13135 15.602 6.13135 14.8365C6.13135 12.7051 6.13994 10.5738 6.13994 8.44243C6.13994 6.0675 6.13135 3.69258 6.13135 1.31765C6.13135 0.36072 6.47523 0.0214445 7.42949 0.0214445C7.92811 0.0214445 8.43533 0.0127451 8.93395 0.0214445C9.68189 0.0301439 10.0602 0.421615 10.0687 1.18716C10.0773 3.46639 10.0687 5.75432 10.0687 8.04226Z" fill="#BCBCBC"/>
    <path d="M24.4949 4.26655C24.4949 6.01513 24.5034 7.7724 24.4949 9.52097C24.4863 11.3043 24.4777 13.0877 24.4605 14.8711C24.4519 15.6018 24.0908 15.9759 23.3772 15.9846C22.8184 15.9933 22.2596 15.9933 21.7008 15.9846C20.9013 15.9759 20.5402 15.6105 20.5317 14.8189C20.5231 13.2356 20.5317 11.661 20.5317 10.0777C20.5317 7.16344 20.5317 4.25785 20.5317 1.34357C20.5317 0.334442 20.8583 0.00386638 21.8384 0.00386638C22.3542 0.00386638 22.87 -0.00483298 23.3858 0.00386638C24.065 0.0212651 24.4519 0.404037 24.4605 1.09129C24.4691 2.15261 24.4605 3.20523 24.4605 4.26655C24.4777 4.26655 24.4863 4.26655 24.4949 4.26655Z" fill="#BCBCBC"/>
    <path d="M5.66748 7.99864C5.66748 9.63412 5.65029 11.2696 5.67608 12.9051C5.68468 13.3226 5.50414 13.4531 5.15167 13.4531C4.5069 13.4618 3.86212 13.4705 3.21735 13.4531C2.64136 13.4357 2.25449 13.0269 2.25449 12.444C2.2459 9.47753 2.2459 6.51104 2.25449 3.53586C2.25449 2.94431 2.64995 2.55283 3.22595 2.53544C3.87072 2.51804 4.51549 2.52674 5.16026 2.53544C5.52993 2.53544 5.68468 2.69202 5.67608 3.09219C5.65889 4.73637 5.66748 6.36316 5.66748 7.99864Z" fill="#BCBCBC"/>
    <path d="M24.9416 7.98146C24.9416 6.34598 24.9501 4.7105 24.933 3.07501C24.9244 2.69224 25.0791 2.54435 25.423 2.54435C26.0849 2.54435 26.7383 2.52696 27.4003 2.54435C27.9935 2.56175 28.3373 2.98802 28.3459 3.65787C28.3545 5.46734 28.3459 7.27681 28.3459 9.08628C28.3459 10.1563 28.3545 11.2263 28.3459 12.2963C28.3459 13.0967 27.9763 13.4621 27.1854 13.4621C26.6266 13.4621 26.0678 13.4621 25.509 13.4621C25.1221 13.4621 24.9244 13.3403 24.933 12.8792C24.9673 11.2524 24.9416 9.61694 24.9416 7.98146Z" fill="#BCBCBC"/>
    <path d="M20.0759 9.52959C18.4769 9.52959 16.9381 9.52959 15.3992 9.52959C13.9119 9.53829 12.4333 9.53829 10.946 9.56439C10.6193 9.57309 10.4903 9.4861 10.4989 9.12942C10.5247 8.26818 10.5075 7.39825 10.5075 6.43262C11.0148 6.43262 11.4532 6.43262 11.8916 6.43262C14.5137 6.43262 17.1272 6.44132 19.7493 6.44132C19.947 6.44132 20.0845 6.45872 20.0845 6.7023C20.0759 7.63313 20.0759 8.55526 20.0759 9.52959Z" fill="#BCBCBC"/>
    <path d="M28.8535 9.52942C28.8535 8.4942 28.8535 7.51117 28.8535 6.47595C29.292 6.47595 29.7218 6.44985 30.1345 6.48465C30.4869 6.51944 30.6503 6.80652 30.6675 7.1284C30.6933 7.70256 30.7019 8.28542 30.6675 8.85957C30.6417 9.31194 30.3752 9.51203 29.9281 9.52072C29.5757 9.52942 29.2232 9.52942 28.8535 9.52942Z" fill="#BCBCBC"/>
    <path d="M1.73873 9.52121C1.33468 9.52121 0.947814 9.54731 0.569548 9.51251C0.199879 9.47771 0.0279401 9.19063 0.0193431 8.84266C-0.00644771 8.2772 -0.00644771 7.71174 0.0193431 7.15498C0.036537 6.70262 0.303042 6.47643 0.741487 6.46773C1.06817 6.45903 1.39485 6.46773 1.74733 6.46773C1.73873 7.50296 1.73873 8.48599 1.73873 9.52121Z" fill="#BCBCBC"/>
</svg>
